<svg width="163" height="188" viewBox="0 0 163 188" fill="none" xmlns="http://www.w3.org/2000/svg">
<path d="M126.522 186.244C126.827 185.685 126.91 185.546 127.102 185.194C156.711 130.956 136.656 62.7307 82.3959 33.1094C62.9775 22.474 40.8328 17.8605 18.7857 19.8573C14.3064 20.2628 3.17977 20.493 3.17977 20.493C30.3128 14.2117 58.8124 18.1289 83.2499 31.4984C138.389 61.5994 158.774 130.938 128.682 186.06C128.49 186.411 128.298 186.76 128.103 187.107C127.247 188.638 125.773 186.925 126.522 186.244Z" fill="#C3937C"/>
<path d="M107.094 108.442C107.404 106.025 108.249 103.665 110.514 102.512C112.463 101.51 114.736 101.432 116.854 101.811C121.794 102.692 125.699 105.914 128.833 109.676C133.248 114.992 137.715 128.478 137.607 128.63C138.853 129.389 140.231 129.234 141.416 130.098C141.936 130.477 141.299 132.308 140.779 131.93C137.006 129.148 132.849 126.928 128.439 125.339C124.318 123.87 119.92 123.354 115.841 121.795C110.186 119.616 106.285 114.704 107.094 108.442ZM109.027 114.698C109.041 114.68 109.059 114.666 109.079 114.656C109.099 114.646 109.121 114.641 109.144 114.641C109.166 114.641 109.188 114.646 109.208 114.656C109.229 114.666 109.246 114.68 109.26 114.698C112.533 119.39 117.977 120.325 123.192 121.374C122.148 120.957 121.124 120.503 120.115 119.996C115.507 117.66 111.394 114.455 108.003 110.558C108.021 110.905 108.049 111.259 108.098 111.609C108.246 112.677 108.556 113.716 109.016 114.692L109.027 114.698ZM132.801 120.482C132.92 120.709 133.036 120.94 133.15 121.174C133.092 120.975 133.028 120.78 132.965 120.582C132.945 120.586 132.924 120.584 132.905 120.578C132.885 120.571 132.868 120.56 132.855 120.544L132.801 120.482ZM134.912 125.408C134.749 125.267 134.578 125.135 134.401 125.013C134.657 125.283 134.911 125.549 135.158 125.822C135.07 125.697 134.991 125.549 134.912 125.408ZM134.29 124.596C134.29 124.596 134.276 124.589 134.268 124.584L134.29 124.596ZM134.315 124.272C134.255 124.156 134.198 124.034 134.145 123.918L134.202 124.185C134.227 124.206 134.267 124.239 134.306 124.267L134.315 124.272ZM133.953 124.401L133.939 124.328C133.7 124.147 133.464 123.967 133.222 123.792C133.382 123.951 133.546 124.11 133.692 124.262C133.783 124.308 133.864 124.353 133.945 124.397L133.953 124.401ZM133.857 123.913C133.777 123.506 133.684 123.118 133.587 122.723L133.551 122.649C133.026 121.507 132.423 120.401 131.747 119.34C125.581 112.872 118.032 107.882 109.666 104.744C109.585 104.838 109.512 104.932 109.436 105.032C114.546 108.347 119.457 111.96 124.144 115.85C126.788 118.021 129.489 120.221 131.999 122.612C132.619 123.012 133.239 123.448 133.843 123.905L133.857 123.913ZM133.845 122.603C134.182 123.317 134.504 124.019 134.874 124.712C135.016 124.825 135.162 124.93 135.302 125.047C135.321 125.065 135.335 125.089 135.341 125.115C135.347 125.141 135.346 125.168 135.336 125.193C135.327 125.218 135.311 125.24 135.29 125.256C135.268 125.272 135.243 125.282 135.216 125.283C135.373 125.424 135.522 125.574 135.661 125.733C133.88 121.129 132.334 116.334 129.568 112.271C131.498 115.48 132.936 118.961 133.834 122.597L133.845 122.603ZM134.43 125.464L134.442 125.536C134.49 125.562 134.534 125.587 134.582 125.613C134.523 125.555 134.472 125.502 134.424 125.45L134.43 125.464ZM134.074 125.085C133.887 124.888 133.702 124.689 133.509 124.497C132.499 124.024 131.436 123.674 130.343 123.455C131.646 123.991 132.909 124.62 134.122 125.336L134.074 125.085ZM108.005 110.174C108.019 110.175 108.032 110.18 108.044 110.186C108.056 110.193 108.067 110.202 108.075 110.213C112.115 114.905 117.193 118.592 122.907 120.978C123.76 121.332 124.624 121.625 125.492 121.892C126.367 122.101 127.227 122.335 128.063 122.606C129.217 122.902 130.376 123.182 131.539 123.494C132.016 123.621 132.486 123.773 132.947 123.95C132.561 123.565 132.168 123.18 131.758 122.8C128.054 120.335 124.026 118.408 120.189 116.121C115.896 113.549 112.135 110.243 108.441 106.908C108.109 107.958 107.959 109.058 107.999 110.16L108.005 110.174ZM108.577 106.619C112.817 110.437 117.112 114.064 122.115 116.878C124.95 118.473 127.834 119.971 130.581 121.689C128.647 119.907 126.591 118.229 124.582 116.572C119.715 112.493 114.603 108.716 109.275 105.26C108.991 105.681 108.754 106.131 108.57 106.604L108.577 106.619ZM109.862 104.517C117.778 107.505 124.965 112.148 130.944 118.135C130.355 117.277 129.73 116.438 129.065 115.588C124.904 110.219 120.252 105.05 113.732 102.646C112.256 102.767 110.876 103.428 109.856 104.502L109.862 104.517ZM114.396 102.601C119.677 104.707 123.737 108.59 127.343 112.938C129.037 114.992 130.768 117.106 132.182 119.381C132.404 119.614 132.621 119.854 132.835 120.101C131.556 116.171 129.63 112.482 127.136 109.186C123.834 105.517 119.354 102.41 114.389 102.587L114.396 102.601ZM135.33 126.453C135.062 126.278 134.793 126.105 134.519 125.941C134.569 126.281 134.62 126.621 134.665 126.965C135.306 127.315 135.426 127.341 136.073 127.712C135.883 127.255 135.63 126.827 135.323 126.438L135.33 126.453ZM117.456 121.319C121.649 122.696 126.017 123.319 130.152 124.923C131.58 125.477 132.979 126.104 134.344 126.801C134.299 126.45 134.251 126.1 134.192 125.748C129.651 123.106 124.799 122.157 119.519 120.948C115.528 120.033 111.758 118.527 109.259 115.173C110.888 118.205 113.944 120.153 117.45 121.304L117.456 121.319Z" fill="#C3937C"/>
<path d="M140.734 131.234C141.97 128.763 143.332 126.348 144.751 123.962C144.708 123.891 144.686 123.808 144.688 123.725C144.829 116.146 143.16 108.462 144.338 100.913C145.195 95.3516 148.316 87.9839 154.699 87.2593C161.081 86.5348 163.039 92.5645 161.807 97.7496C160.147 104.724 154.761 109.991 150.975 115.841C147.651 120.973 145.301 128.359 142.558 133.842C142.264 134.407 140.45 131.801 140.734 131.234ZM153.98 108.214C153.716 109.32 153.376 110.408 152.963 111.468C154.622 109.261 156.297 107.045 157.715 104.714C156.488 105.857 155.219 107.016 153.972 108.209L153.98 108.214ZM149.117 116.904C149.178 116.792 149.256 116.689 149.324 116.584C150.367 114.633 151.19 112.572 151.777 110.439C150.988 111.279 150.235 112.139 149.538 113.037C149.465 114.473 149.243 115.897 148.874 117.287L149.117 116.904ZM150.498 114.839C151.092 113.991 151.709 113.147 152.334 112.308C152.805 111.289 153.19 110.232 153.484 109.149C153.539 108.95 153.587 108.747 153.636 108.545C153.145 109.025 152.657 109.514 152.182 110.01C151.728 111.656 151.165 113.269 150.498 114.839ZM148.054 118.59C148.054 118.59 148.065 118.57 148.071 118.559C148.114 118.481 148.155 118.405 148.222 118.343L148.391 118.073C148.904 116.53 149.223 114.93 149.343 113.308C149.203 113.49 149.069 113.671 148.935 113.856C148.638 115.929 148.074 117.955 147.257 119.883L148.054 118.59ZM149.365 112.815C149.382 112.404 149.39 111.99 149.385 111.574C149.377 111.329 149.361 111.085 149.352 110.829C149.25 111.642 149.145 112.452 149.025 113.258C149.134 113.111 149.251 112.957 149.371 112.804L149.365 112.815ZM145.673 122.153C147.289 119.766 148.077 117.084 148.591 114.325C147.223 116.238 146.22 118.386 145.633 120.663C145.656 121.152 145.671 121.65 145.678 122.144L145.673 122.153ZM145.674 122.378L145.673 122.432L145.696 122.39C145.688 122.385 145.682 122.378 145.678 122.37L145.674 122.378ZM145.424 117.092C145.816 114.691 146.347 112.32 146.681 109.898C147.213 106.016 146.481 101.832 146.032 97.897C145.92 98.2824 145.81 98.6622 145.716 99.0354C144.25 104.888 144.983 111.026 145.429 117.084L145.424 117.092ZM146.252 97.2074C146.662 101.063 147.378 105.129 147.08 109.001C146.811 112.155 145.984 115.255 145.527 118.408L145.604 119.758C146.291 117.574 147.342 115.521 148.714 113.688C148.931 112.379 149.097 111.05 149.257 109.725C148.981 107.395 148.407 105.08 148.368 102.702C148.31 97.9097 150.162 93.379 152.107 89.0656C149.163 90.6437 147.313 94.0061 146.249 97.213L146.252 97.2074ZM154.079 88.3481C153.542 88.4654 153.019 88.6401 152.519 88.8694C149.804 94.9737 148.102 100.52 149.198 107.331C149.27 107.785 149.328 108.231 149.382 108.678C149.575 107.12 149.786 105.568 150.109 104.059C151.321 98.4761 153.415 93.122 156.311 88.198C155.563 88.1377 154.809 88.1902 154.076 88.3537L154.079 88.3481ZM156.624 88.2236C153.357 93.7488 151.111 99.8174 149.994 106.139C149.79 107.331 149.635 108.54 149.479 109.744C149.558 110.683 149.582 111.626 149.55 112.568C150.302 111.631 151.103 110.729 151.943 109.85C152.599 107.569 153.161 105.242 153.925 102.991C155.44 98.5991 157.499 94.4147 160.053 90.5347C159.7 89.9103 159.205 89.3768 158.61 88.9766C158.014 88.5764 157.333 88.3205 156.621 88.2292L156.624 88.2236ZM160.217 90.8203C157.145 95.5416 154.803 100.699 153.268 106.118C152.951 107.231 152.663 108.33 152.347 109.443C152.809 108.969 153.28 108.499 153.759 108.035C153.986 106.781 154.297 105.545 154.689 104.334C155.876 101.088 158.351 98.797 160.881 96.5577C160.896 96.544 160.914 96.5336 160.933 96.5272C160.952 96.5207 160.972 96.5184 160.992 96.5203C161.257 94.5185 161.044 92.4195 160.214 90.8259L160.217 90.8203ZM160.937 96.9007C157.4 100.054 155.192 102.992 154.109 107.699C155.482 106.382 156.884 105.111 158.219 103.849C159.216 102.148 160.011 100.336 160.589 98.4501C160.736 97.9432 160.851 97.4275 160.934 96.9063L160.937 96.9007Z" fill="#C3937C"/>
<path d="M98.0581 81.2183C96.1046 77.7224 96.5996 74.706 100.477 73.0533C106.108 70.651 111.886 74.782 116.329 77.8574C122.796 82.3286 127.656 88.2608 132.119 94.6595C132.184 94.7407 132.215 94.8433 132.206 94.9466C132.198 95.0499 132.15 95.1461 132.073 95.2156C134.092 96.1761 135.797 95.7157 137.488 97.7685C137.889 98.2523 137.41 100.82 137.002 100.329C131.259 93.3872 123.398 94.576 115.548 92.6111C109.026 90.9754 101.476 87.3366 98.0581 81.2183ZM111.512 90.2737C117.463 91.4499 123.399 92.7063 129.32 94.0431C125.315 89.9535 119.312 89.3965 113.831 88.5546C108.572 87.7463 104.545 85.8999 100.282 82.9009C101.856 84.5686 103.636 86.0286 105.58 87.2456C107.455 88.4443 109.442 89.4585 111.512 90.2737ZM130.678 94.312C130.411 94.134 130.147 93.9532 129.878 93.7808C129.866 93.792 129.853 93.8008 129.838 93.8066C129.823 93.8123 129.807 93.815 129.791 93.8144C129.775 93.8139 129.759 93.81 129.745 93.8032C129.73 93.7963 129.717 93.7867 129.707 93.7746C129.617 93.6787 129.528 93.5898 129.438 93.4939C129.349 93.3979 129.29 93.4129 129.215 93.3717C129.39 93.6091 129.561 93.8478 129.731 94.0894C129.762 94.1062 129.782 94.1426 129.807 94.1706C130.104 94.2384 130.4 94.3019 130.694 94.3682C130.687 94.3501 130.681 94.3312 130.678 94.312ZM128.427 92.851C128.503 92.8922 128.564 92.9586 128.631 93.0167C128.608 93.0044 128.594 92.9711 128.578 92.9477C128.561 92.9243 128.46 92.8764 128.413 92.8433L128.427 92.851ZM99.6814 82.1844C99.6993 82.1791 99.7182 82.1783 99.7364 82.182C99.7547 82.1856 99.7718 82.1936 99.7863 82.2054C102.522 84.189 105.279 86.1191 108.536 87.1416C111.572 88.0947 114.77 88.366 117.897 88.8674C120.349 89.2543 122.794 89.8123 125.012 90.7942C116.668 85.98 107.687 82.3637 98.3354 80.0515C98.6915 80.8113 99.1388 81.525 99.6674 82.1768L99.6814 82.1844ZM98.1902 79.7252C108.752 82.3094 118.837 86.5513 128.07 92.2931C127.995 92.1976 127.925 92.1009 127.861 92.0116C125.916 90.5288 124.009 88.9576 122.082 87.4041C119.366 85.648 116.441 84.2381 113.376 83.207C108.126 81.4304 102.641 80.5569 97.7683 77.8026C97.7906 78.4599 97.9287 79.1082 98.1762 79.7176L98.1902 79.7252ZM97.7659 77.3146C97.7628 77.3602 97.7684 77.4032 97.7654 77.4487C103.274 80.6084 109.595 81.3353 115.438 83.6213C117.132 84.2833 118.775 85.0675 120.355 85.9678C113.984 80.841 107.367 76.1247 98.9493 75.3932C98.9265 75.3904 98.9047 75.3824 98.8855 75.3699C98.8663 75.3574 98.8503 75.3405 98.8386 75.3208C98.8269 75.3011 98.8199 75.279 98.8181 75.2561C98.8163 75.2333 98.8197 75.2103 98.8282 75.1891C98.2066 75.7328 97.8188 76.4955 97.7458 77.3182L97.7659 77.3146ZM98.8845 75.1326C98.8845 75.1326 98.9153 75.1095 98.9422 75.1133C108.102 75.9045 115.142 81.3751 122.025 86.9884C123.57 87.9761 125.046 89.0681 126.443 90.2569C120.425 83.0848 112.899 77.3283 104.402 73.3981C104.384 73.3906 104.369 73.3793 104.357 73.3651C104.344 73.3508 104.335 73.3339 104.331 73.3156C104.313 73.316 104.295 73.3149 104.278 73.3123C102.675 73.2942 100.265 73.8488 98.8643 75.1361L98.8845 75.1326ZM104.958 73.364C113.857 77.5573 121.667 83.7498 127.778 91.4579C128.042 91.7 128.3 91.9462 128.555 92.1979C128.976 92.5113 129.401 92.8235 129.827 93.1285C125.675 87.423 121.102 82.2316 115.156 78.2486C112.16 76.2427 108.651 73.6876 104.946 73.3536L104.958 73.364ZM130.954 94.71L130.81 94.6748L130.979 94.7451L130.954 94.71ZM122.153 92.7634C119.206 92.1231 116.253 91.5106 113.293 90.926C115.089 91.5247 116.932 91.9756 118.802 92.274C119.923 92.443 121.042 92.5962 122.141 92.753L122.153 92.7634Z" fill="#C3937C"/>
<path d="M136.638 101.495C136.918 99.2606 137.427 97.0606 138.155 94.9296C138.072 94.8514 138.018 94.7465 138.005 94.6331C137.504 90.8612 136.485 87.1763 134.976 83.6829C133.963 81.2525 133.072 78.8992 132.777 76.265C132.146 70.6914 133.377 62.753 138.594 59.4669C143.211 56.5585 149.809 60.5052 150.458 65.6244C151.153 71.0077 147.49 76.5185 145.252 81.1508C142.141 87.6088 139.657 95.6916 138.823 102.91C138.744 103.553 136.56 102.124 136.638 101.495ZM137.502 86.8159C137.516 86.5768 137.519 86.3386 137.527 86.1035C137.302 84.2287 137.316 82.3327 137.57 80.4616C137.401 75.3269 136.65 70.2277 135.332 65.2618C134.239 67.6556 133.65 70.2485 133.6 72.8797C133.624 72.8945 133.642 72.9161 133.654 72.9415C134.923 75.8573 135.911 78.8872 136.605 81.9901C137.115 84.3239 137.291 86.7227 137.899 89.0372L138.033 89.5356C138.111 89.8066 138.198 90.0723 138.293 90.3382C138.292 90.1741 138.293 90.0115 138.301 89.8449C138.025 88.8936 137.808 87.9263 137.651 86.9483C137.633 86.9543 137.613 86.9557 137.593 86.9521C137.574 86.9486 137.556 86.9403 137.541 86.928C137.525 86.9156 137.513 86.8997 137.506 86.8816C137.498 86.8635 137.495 86.8438 137.497 86.8243L137.502 86.8159ZM139.333 91.7668C139.357 89.6592 139.35 87.5305 139.414 85.4087C138.95 86.8205 138.674 88.2872 138.591 89.7713C138.782 90.4848 139.01 91.1882 139.272 91.8787L139.333 91.7668ZM139.135 92.2289C139.119 92.2198 139.105 92.2121 139.091 92.2045C138.896 91.7353 138.729 91.2556 138.568 90.7719L138.581 91.1018C138.671 91.322 138.744 91.5543 138.857 91.7538C138.87 91.7799 138.875 91.8093 138.871 91.8381C138.867 91.867 138.855 91.894 138.835 91.9158C138.816 91.9376 138.791 91.9531 138.762 91.9605C138.734 91.9678 138.705 91.9666 138.677 91.957C138.69 92.0473 138.695 92.1374 138.709 92.2249C138.712 92.2543 138.706 92.284 138.692 92.31C138.677 92.3359 138.656 92.357 138.629 92.3704C138.676 92.6317 138.712 92.8841 138.758 93.1668L139.135 92.2289ZM136.317 84.3535C136.601 85.0457 136.858 85.7383 137.102 86.4376C136.916 85.2939 136.753 84.1411 136.529 82.9945C135.874 79.7539 134.891 76.5881 133.596 73.5457C133.598 74.1421 133.624 74.7412 133.676 75.3432C133.953 78.603 135.093 81.3719 136.313 84.3619L136.317 84.3535ZM135.454 64.9981C135.483 64.9949 135.512 65.0025 135.536 65.0194C135.559 65.0363 135.576 65.0614 135.582 65.0897C136.803 69.655 137.545 74.3347 137.798 79.0533C138.328 76.3977 139.227 73.8667 139.275 71.1224C139.333 68.0345 138.465 64.5679 137.713 61.5791C137.19 62.1344 136.726 62.743 136.329 63.3949C136.002 63.928 135.71 64.4624 135.45 65.0065L135.454 64.9981ZM137.937 61.3561C137.937 61.3561 137.937 61.3561 137.956 61.3668C139.144 66.079 140.042 70.949 138.894 75.7477C138.417 77.6789 138.083 79.6428 137.895 81.6232C137.916 82.8694 137.893 84.1167 137.845 85.369C137.92 86.5783 138.097 87.7791 138.374 88.9588C138.564 87.4897 138.921 86.0471 139.439 84.6592C139.5 82.223 139.76 79.796 140.214 77.4019C141.437 71.3619 143.151 65.8262 143.112 59.595C141.026 59.2512 139.3 60.0303 137.932 61.3645L137.937 61.3561ZM143.502 59.6733C143.468 59.6549 143.425 59.6605 143.387 59.6506C143.419 65.1155 142.291 70.1103 140.967 75.3977C140.325 78.1052 139.938 80.8671 139.813 83.6471C140.384 82.1684 141.029 80.7082 141.59 79.2535C143.863 73.3728 145.706 67.3624 146.638 61.1165C145.694 60.438 144.627 59.9515 143.496 59.6845L143.502 59.6733ZM146.87 61.3232C146.026 66.6324 144.652 71.8435 142.767 76.8781C141.896 79.2788 140.663 81.7648 139.749 84.3095C139.648 86.3786 139.626 88.4549 139.6 90.5254C140.853 81.7888 147.868 75.1484 149.537 66.534C149.513 65.9397 149.423 65.3498 149.269 64.7753C148.858 63.3983 148.018 62.1886 146.87 61.3232ZM147.039 75.1355C148.079 72.9178 149.24 70.4391 149.494 67.9233C147.422 75.7914 141.194 82.135 139.922 90.2688C140.846 88.1111 141.855 85.9964 142.822 83.9387C144.22 80.9907 145.672 78.0789 147.055 75.1333L147.039 75.1355Z" fill="#C3937C"/>
<path d="M121.887 68.2942C121.476 66.8243 122.481 66.1959 122.579 64.6188C122.535 64.5669 122.503 64.5071 122.482 64.4427C119.933 56.082 113.19 48.1885 114.209 39.0013C114.904 32.7781 120.855 26.1633 127.597 29.2122C134.846 32.4906 132.861 41.891 129.934 47.3856C126.632 53.5729 121.878 61.6033 123.935 68.9362C124.119 69.5563 122.061 68.9082 121.887 68.2942ZM123.584 59.143C123.773 54.5249 123.232 49.8719 124.162 45.3277C125.133 40.5996 127.333 36.2442 129.524 31.9782C128.456 30.7658 127.005 29.9547 125.413 29.6795C122.347 34.3208 120.627 39.7213 120.445 45.2815L120.441 45.8135C120.65 46.6028 120.864 47.3951 121.08 48.1847C122.234 52.3613 122.916 56.6538 123.115 60.9819C123.252 60.3635 123.413 59.7502 123.584 59.143ZM122.875 62.1659C122.784 56.9414 121.735 52.0359 120.453 47.0436C120.603 52.1918 121.896 57.3571 122.841 62.3943L122.876 62.1773L122.875 62.1659ZM115.145 41.9667C115.518 47.4982 118.25 52.4175 120.653 57.4119C120.377 53.9313 119.541 50.5176 118.179 47.3022C117.049 44.6477 115.865 42.0442 115.199 39.2582C115.104 40.156 115.086 41.0603 115.148 41.9611L115.145 41.9667ZM115.309 38.4248C115.976 41.8071 117.482 44.8589 118.781 48.0372C120.116 51.3082 120.714 54.4783 120.993 57.9606C120.995 57.9773 120.993 57.9942 120.988 58.0102C120.983 58.0263 120.975 58.0411 120.964 58.0537C121.436 59.0381 121.883 60.0372 122.295 61.0393C121.319 56.0723 120.141 50.9696 120.161 45.9146L119.977 45.2003C118.794 40.7123 117.961 36.1828 118.91 31.5951C116.899 33.2897 115.759 35.7905 115.315 38.4136L115.309 38.4248ZM120.742 30.4018C120.218 30.6554 119.719 30.9598 119.254 31.3108C118.197 35.9089 119.026 40.3812 120.181 44.8397L120.195 44.3609C120.528 39.1137 122.218 34.0434 125.1 29.6467C123.608 29.4651 122.095 29.7236 120.748 30.3906L120.742 30.4018ZM129.715 32.2277C127.552 36.4361 125.388 40.7387 124.43 45.4016C123.571 49.5917 123.969 53.8658 123.89 58.1112C124.03 57.6684 124.172 57.2342 124.319 56.8058C124.028 53.1457 124.53 49.4662 125.789 46.0178C127.049 42.5693 129.037 39.4328 131.617 36.8216C131.528 36.1869 131.383 35.5611 131.185 34.9514C130.872 33.9565 130.375 33.0289 129.721 32.2165L129.715 32.2277ZM131.242 41.7553C129.533 44.4494 128.165 47.3448 127.168 50.3754C128.717 47.5455 130.426 44.7201 131.248 41.7441L131.242 41.7553ZM126.483 51.6502C127.58 47.8417 129.253 44.2238 131.446 40.9225C131.719 39.6973 131.794 38.4363 131.668 37.1873C129.241 39.6859 127.356 42.6593 126.133 45.9209C124.909 49.1826 124.373 52.6621 124.558 56.1412C124.718 55.6947 124.88 55.2526 125.041 54.8248C125.46 53.7384 125.942 52.6775 126.485 51.6474L126.483 51.6502Z" fill="#C3937C"/>
<path d="M77.3136 55.636C76.4874 48.3648 85.0723 45.603 90.791 46.9201C99.6672 48.9621 106.987 55.5913 113.971 61.027C114.038 61.0773 114.089 61.1467 114.116 61.2262C116.493 62.1312 117.06 61.7438 118.984 63.4768C119.458 63.8992 120.43 66.3253 119.956 65.903C116.21 62.5327 111.308 60.7385 106.272 60.895C101.829 61.0478 97.5838 62.8341 93.2439 63.6099C87.1486 64.6729 78.1802 63.2923 77.3136 55.636ZM82.5404 61.5145C82.7699 61.6397 82.9966 61.7635 83.2178 61.8842C83.2178 61.8842 83.2177 61.8842 83.2437 61.8766C88.5865 61.9851 93.9193 61.3721 99.0977 60.0544C97.3482 60.0581 95.6005 60.0918 93.854 60.1697C89.9379 60.3488 86.0441 60.7398 82.1633 61.2868C82.2862 61.3612 82.4119 61.437 82.5376 61.5129L82.5404 61.5145ZM105.65 59.9309C105.876 59.9163 106.102 59.9088 106.329 59.8985C105.688 59.5485 105.022 59.1849 104.347 58.8166C103.857 58.9558 103.39 59.1001 102.966 59.2245C102.321 59.417 101.675 59.6057 101.029 59.7906C102.568 59.8121 104.107 59.8583 105.647 59.9294L105.65 59.9309ZM106.335 58.3437C107.315 58.8504 108.269 59.4063 109.193 60.0093C109.48 60.0426 109.764 60.0814 110.054 60.1161C108.82 59.5408 107.594 58.9514 106.39 58.3228L106.335 58.3437ZM105.888 58.4302C105.497 58.5145 105.114 58.6105 104.739 58.711C105.475 59.0943 106.181 59.4979 106.872 59.8753C107.449 59.8705 108.026 59.8986 108.599 59.9464C107.708 59.402 106.809 58.893 105.885 58.4287L105.888 58.4302ZM100.386 59.7116C101.305 59.4511 102.543 58.9867 103.872 58.5826C99.8727 56.5917 95.223 55.0666 91.097 56.2024C87.4538 57.206 84.3997 59.5261 80.5935 59.9831C80.9722 60.3748 81.3853 60.7316 81.828 61.0493C87.8888 60.1778 94.0057 59.7543 100.129 59.7822C100.209 59.7566 100.296 59.7355 100.383 59.7101L100.386 59.7116ZM80.3614 59.7293C84.9756 59.2631 88.6936 55.7801 93.34 55.5276C96.963 55.3265 100.859 56.7273 104.266 58.467C104.632 58.3619 104.998 58.2639 105.365 58.1773C102.114 56.6048 98.6078 55.6255 95.0125 55.2858C89.5371 54.7807 84.1388 55.9047 78.8196 57.0501C78.7912 57.0539 78.7623 57.0484 78.7374 57.0342C79.0995 58.028 79.65 58.9425 80.3586 59.7278L80.3614 59.7293ZM78.6718 56.835C78.6797 56.8215 78.6903 56.8097 78.7029 56.8004C78.7155 56.7911 78.7298 56.7843 78.7451 56.7806C84.0943 55.6334 89.5435 54.4827 95.0459 54.9917C98.7982 55.3483 102.452 56.3963 105.824 58.0827L105.884 58.072C105.324 57.7664 104.764 57.4608 104.215 57.1356C101.354 55.4285 98.5844 53.408 95.3418 52.4731C93.5201 52.1831 91.6647 51.9946 89.8132 51.8591C85.9335 52.0181 82.0556 53.2386 78.3948 54.4141C78.3948 54.4141 78.3752 54.4034 78.364 54.3973C78.3151 55.2197 78.4165 56.0442 78.6634 56.8304L78.6718 56.835ZM102.511 55.7586C103.797 56.5513 105.097 57.2831 106.418 57.9787C107.06 57.8662 107.713 57.8266 108.364 57.8609C107.397 57.1111 106.424 56.3697 105.44 55.6436C102.78 54.263 99.9266 53.2906 96.9767 52.7592C98.895 53.6024 100.74 54.6026 102.494 55.7494L102.511 55.7586ZM78.3783 54.1182C81.4213 53.1428 84.6166 52.1344 87.8444 51.7321C84.9663 51.5736 82.1218 51.5134 79.4469 51.3822C79.4198 51.378 79.3951 51.3645 79.3769 51.344C78.8187 52.1694 78.4701 53.1184 78.3615 54.109L78.3783 54.1182ZM79.5362 51.1187C82.7527 51.2695 86.2164 51.3336 89.699 51.5825C91.2919 51.4949 92.8893 51.6219 94.4484 51.96C94.7711 52.0345 95.0876 52.1201 95.3996 52.2142C98.3836 52.6425 101.297 53.4663 104.064 54.6637C103.352 54.1585 102.632 53.6673 101.904 53.1902C101.891 53.2116 101.871 53.2279 101.847 53.2361C101.823 53.2444 101.798 53.2441 101.774 53.2354C95.2881 51.2671 88.7869 49.3668 81.9793 48.9661C81.9793 48.9661 81.9541 48.9523 81.9429 48.9462C81.3359 49.3134 80.7754 49.7524 80.2736 50.2538C80.0049 50.5162 79.7554 50.7974 79.5271 51.0955L79.5362 51.1187ZM92.8097 48.5596C89.4293 47.3715 85.4886 47.0033 82.3354 48.7065C88.8404 49.1491 95.0807 50.9216 101.294 52.8029C98.6417 51.0588 95.7956 49.6281 92.8133 48.5398L92.8097 48.5596ZM108.837 58.2532C108.206 58.1783 107.568 58.1855 106.94 58.2743C108.332 58.9981 109.744 59.6855 111.174 60.3607C111.34 60.3967 111.497 60.4352 111.665 60.4798C110.72 59.7218 109.775 58.971 108.829 58.2272L108.837 58.2532ZM103.775 60.1711C103.449 60.1422 103.182 60.1268 103.076 60.1201C102.099 60.0876 101.119 60.072 100.139 60.0636C98.8518 60.425 97.5585 60.7576 96.2418 61.0266C92.1491 61.8437 87.9816 62.2283 83.8081 62.1738C90.1198 64.8605 97.3253 61.1714 103.768 60.1452L103.775 60.1711Z" fill="#C3937C"/>
<path d="M101.773 45.9101C101.382 44.1969 102.515 44.0525 102.517 42.3907C102.444 42.4082 102.367 42.4054 102.295 42.3827C102.223 42.36 102.158 42.3182 102.108 42.2617C97.4176 37.4569 94.7194 31.0594 94.8689 24.3101C94.9619 19.9339 96.5426 10.643 101.891 9.55C108.882 8.1185 109.306 18.7403 108.483 23.0044C106.852 31.4149 101.989 38.2274 104.015 47.1598C104.171 47.786 101.905 46.5269 101.773 45.9101ZM102.572 40.852C102.309 40.3669 102.065 39.8788 101.839 39.3874L101.873 39.6968C101.928 40.0497 101.995 40.4131 102.077 40.7813C102.231 40.9523 102.387 41.1178 102.547 41.2847L102.572 40.852ZM103.208 36.554C103.016 35.781 102.784 35.0265 102.547 34.2832C101.951 35.585 101.677 37.0111 101.749 38.4412L101.751 38.4898C102.01 39.1069 102.298 39.7179 102.609 40.3198C102.724 39.0525 102.924 37.7944 103.208 36.554ZM102.382 33.7608C102.166 33.0982 101.958 32.4402 101.774 31.773C101.604 33.1054 101.541 34.4493 101.585 35.7919C101.65 35.5421 101.727 35.2958 101.817 35.0542C101.986 34.6195 102.177 34.1899 102.379 33.7664L102.382 33.7608ZM95.8495 25.056C95.8903 28.3828 96.6383 31.6631 98.0439 34.6793C97.4272 28.0091 98.0726 21.0837 98.2003 14.4278C97.8293 15.2203 97.5187 16.0422 97.2529 16.7687C96.2918 19.4244 95.8164 22.2316 95.8495 25.056ZM99.7334 12.0653C99.193 12.6585 98.743 13.3281 98.3978 14.0526C98.429 14.0547 98.4579 14.0691 98.4785 14.0926C98.499 14.1161 98.5095 14.1467 98.5075 14.1778C98.3652 21.16 97.6516 28.4367 98.3985 35.4139C99.0659 36.7346 99.8522 37.9916 100.748 39.1696C96.0336 30.1826 98.5782 19.6783 102.386 10.6478C101.363 10.7975 100.426 11.2987 99.7334 12.0653ZM102.694 10.6347C98.7253 19.9947 96.0592 30.981 101.636 40.1989C101.504 39.5843 101.414 38.9615 101.367 38.3347C99.6068 34.0116 99.1283 29.2737 99.9888 24.6869C100.849 20.1002 103.012 15.8585 106.22 12.4686C105.293 11.2182 104.006 10.581 102.694 10.6347ZM106.606 13.0062C106.54 12.8939 106.465 12.7914 106.395 12.6875C103.328 15.9411 101.232 19.9863 100.342 24.3676C99.4512 28.7488 99.8021 33.292 101.355 37.4854C101.354 37.4198 101.365 37.3531 101.368 37.289C101.193 35.2163 101.269 33.1303 101.595 31.076C101.168 29.4991 101.078 27.8499 101.331 26.2361C102.09 21.8969 104.793 18.2772 107.442 14.8824C107.228 14.2301 106.948 13.6013 106.606 13.0062ZM107.583 15.2099C104.673 18.9419 101.657 23.0767 101.447 27.9922C101.414 28.8893 101.494 29.7871 101.685 30.6642C101.722 30.4843 101.744 30.304 101.788 30.1244C102.706 26.1519 105.157 22.921 107.926 20.0384C107.937 20.0263 107.951 20.0167 107.967 20.0102C107.982 20.0036 107.999 20.0003 108.016 20.0003C108.17 18.3872 108.018 16.7594 107.569 15.2023L107.583 15.2099ZM107.977 20.3898C105.084 23.4334 102.589 26.8652 101.879 31.1077L101.847 31.3405C102.034 32.0748 102.269 32.8023 102.516 33.5217C103.602 31.3 105.083 29.1596 106.377 27.1137C107.158 24.9369 107.69 22.6787 107.963 20.3822L107.977 20.3898ZM105.925 28.3484C104.835 30.1064 103.752 31.8831 102.818 33.7195C102.764 33.8203 102.731 33.919 102.688 34.0115C102.918 34.6889 103.154 35.3551 103.348 36.0498C103.708 34.5948 104.149 33.1611 104.668 31.7552C105.041 30.6802 105.482 29.5335 105.911 28.3408L105.925 28.3484Z" fill="#C3937C"/>
<path d="M86.8762 35.0578C86.0237 33.8043 87.101 33.4881 86.4668 32.1142C86.4025 32.0934 86.3427 32.0608 86.2905 32.0179C83.1299 29.3142 80.1993 26.3527 77.5291 23.164C75.7818 21.0407 74.1775 18.7087 73.7563 15.933C73.1646 12.0256 75.2088 5.28641 79.9415 4.85587C85.2866 4.38191 86.4165 10.704 85.8287 14.6357C85.162 19.098 85.0276 23.2773 85.9308 27.293C86.4193 28.1887 86.7088 29.1792 86.7797 30.1968C87.4744 32.0911 88.4009 33.8923 89.5379 35.5593C89.8974 36.0788 87.2327 35.5828 86.8762 35.0578ZM81.0915 21.6297C80.9139 21.4492 80.7246 21.2768 80.5412 21.1004C80.9325 22.1245 81.387 23.1234 81.902 24.0913L81.9743 24.1852C81.8143 23.5132 81.6974 22.8357 81.5988 22.1645C81.4332 21.9687 81.2538 21.7982 81.0915 21.6297ZM74.7897 16.0432C74.8075 16.1437 74.8296 16.2429 74.8518 16.3422C74.8737 16.3409 74.8955 16.3459 74.9148 16.3564C74.9341 16.3669 74.95 16.3826 74.9609 16.4017C76.9652 20.2305 80.1214 23.2137 82.7368 26.5952C82.5928 26.1934 82.4338 25.7725 82.3186 25.3646C82.1006 24.9987 81.8897 24.633 81.6905 24.2591C80.4424 22.6681 79.3598 20.954 78.4597 19.1434C77.2491 18.0866 76.0217 17.0607 74.7897 16.0432ZM78.1114 18.4703C76.8587 15.7769 76.0128 12.9126 75.6013 9.97118C74.7745 11.7328 74.4713 13.695 74.7277 15.6244C75.8612 16.5627 76.9975 17.5026 78.1114 18.4703ZM84.9054 27.7537C84.1403 27.0474 83.4122 26.302 82.724 25.5205C83.4712 26.7333 84.3161 27.8832 85.2503 28.9588C85.1261 28.5606 85.0122 28.157 84.9054 27.7537ZM80.9602 22.8218C80.6265 22.1021 80.3268 21.3865 80.0654 20.641C79.7219 20.3118 79.3741 19.984 79.0189 19.663C79.5995 20.7553 80.2478 21.8103 80.9602 22.8218ZM82.4081 24.7017C83.1498 25.5987 83.9435 26.4515 84.7849 27.2557C84.6857 26.8385 84.5893 26.4227 84.5042 26.013C84.0666 25.3238 83.6201 24.6044 83.223 23.861C82.7966 23.3776 82.3636 22.9197 81.9413 22.4822C82.0526 23.2314 82.208 23.9734 82.4066 24.7045L82.4081 24.7017ZM85.4865 29.6507C84.568 28.6448 83.7274 27.5704 82.9722 26.4368C83.1283 26.8162 83.2876 27.1901 83.4499 27.5583C83.7857 28.0213 84.1126 28.4939 84.4191 28.9772C84.8305 29.3616 85.2392 29.7444 85.6552 30.1204L85.4865 29.6507ZM80.1903 24.7112C81.191 25.8131 82.2273 26.8763 83.2931 27.9121L83.187 27.6872C80.5935 24.0924 77.2569 21.0471 75.0503 17.1696L75.0666 17.233C75.9824 20.1407 78.2112 22.5268 80.2015 24.7173L80.1903 24.7112ZM75.8159 9.51818C76.23 12.8004 77.19 15.9904 78.6561 18.9565C79.064 19.3208 79.4647 19.6848 79.8708 20.059C78.4116 15.6421 78.1393 10.9198 79.0811 6.36536C79.0903 6.34857 79.0964 6.33741 79.104 6.32342C78.0664 6.72882 77.1742 7.43586 76.5426 8.35332C76.2786 8.72746 76.0396 9.11865 75.8271 9.5243L75.8159 9.51818ZM79.2585 6.2734C79.2903 6.2829 79.3173 6.30413 79.3341 6.33282C79.3508 6.36151 79.356 6.39549 79.3486 6.42785C78.3793 11.0995 78.7035 15.9474 80.2863 20.4493C80.7084 20.854 81.1216 21.2684 81.5289 21.6869C81.0061 16.9745 82.018 12.0796 83.5362 7.46834C83.0259 6.86567 82.3463 6.43011 81.5856 6.21814C80.8248 6.00616 80.018 6.02754 79.2697 6.2795L79.2585 6.2734ZM84.2515 24.466C84.0411 22.4779 84.0513 20.4727 84.2821 18.487C84.5695 15.4517 85.7333 12.1286 84.5625 9.16889C84.3602 8.65254 84.0855 8.16755 83.7466 7.72846C82.2357 12.3728 81.2483 17.3029 81.8645 22.0372C82.1751 22.3665 82.4827 22.7015 82.7718 23.0372C82.3343 22.1855 82.028 21.2726 81.863 20.3295C81.494 17.851 83.3635 15.2982 84.7207 13.4243C84.8258 13.2784 85.0877 13.4177 84.9698 13.5603C83.1924 16.011 81.4898 18.6041 82.6371 21.6999C82.985 22.6075 83.4008 23.4876 83.881 24.3328C84.0233 24.5048 84.1652 24.684 84.3156 24.8678C84.3087 24.7406 84.2777 24.6111 84.2627 24.4722L84.2515 24.466Z" fill="#C3937C"/>
<path d="M55.6206 42.6387C54.6469 40.4293 55.0379 37.9627 56.3656 35.9965C58.2629 33.1865 61.0682 32.154 64.2897 31.6502C72.5384 30.3427 79.9916 34.8982 87.2514 38.0842C87.2708 38.0928 87.2896 38.1031 87.3074 38.1148C89.0317 37.9376 89.0346 37.1003 90.7549 36.9572C91.3903 36.9046 93.138 38.5814 92.5066 38.6398C83.3401 39.399 74.6886 40.5592 66.4785 44.9237C62.6119 46.9819 57.7277 47.4569 55.6206 42.6387ZM57.3801 36.2344C62.0373 34.851 66.9286 35.5276 71.6976 35.8759C74.4202 36.0729 77.9022 35.8639 80.7773 36.7398C81.4683 36.8316 82.1534 36.9631 82.8293 37.1337C82.5418 36.9949 82.271 36.8652 81.9876 36.7323C79.2964 35.8986 76.3558 35.7351 73.6216 35.1467C70.423 34.4573 67.273 33.5657 64.1246 32.6713C61.5052 33.0971 58.9448 34.107 57.3857 36.2375L57.3801 36.2344ZM64.8107 32.5592C68.0792 33.4865 71.3569 34.397 74.6845 35.0696C76.6678 35.4696 78.7168 35.6694 80.6634 36.0966C76.1863 34.0156 71.5438 32.1712 66.6429 32.3973C66.0426 32.4255 65.4285 32.4789 64.8107 32.5592ZM84.2636 37.8005C83.5519 37.5935 82.8351 37.4092 82.1155 37.2633C82.205 37.3122 82.2974 37.3626 82.3954 37.4161C82.9804 37.4814 83.539 37.6951 84.0183 38.037C84.0575 38.0584 84.0939 38.0782 84.1303 38.0981C84.1521 38.1095 84.1699 38.1273 84.1814 38.1491C84.1928 38.171 84.1974 38.1958 84.1944 38.2202C84.2197 38.2464 84.2434 38.2739 84.2656 38.3027C84.4353 38.3445 84.6035 38.3891 84.7689 38.4322C84.9753 38.4069 85.1832 38.3788 85.3924 38.355C85.0186 38.1545 84.6425 37.9783 84.2636 37.8005ZM83.9152 38.4855L83.9011 38.4778C83.9062 38.4795 83.911 38.4821 83.9152 38.4855ZM83.2821 38.3142C82.5777 38.1403 81.856 37.9715 81.1227 37.8108C80.5339 37.8758 79.9534 38.0006 79.3899 38.1831C79.9609 38.4019 80.5197 38.6512 81.0639 38.9299C81.8985 38.7899 82.7358 38.6648 83.5759 38.5545C83.4917 38.4758 83.3933 38.3966 83.2905 38.3187L83.2821 38.3142ZM78.9596 38.3259C77.6903 38.8096 76.4732 39.4202 75.3269 40.1486C77.0559 39.6835 78.81 39.3119 80.5728 39.0177C80.0505 38.7601 79.5148 38.5307 78.968 38.3305L78.9596 38.3259ZM73.2101 40.7653C73.5898 40.6421 73.9715 40.5418 74.3522 40.43C75.6745 39.542 77.0826 38.7887 78.5552 38.1814C77.7216 37.8994 76.8665 37.6852 75.9984 37.541C75.7597 37.6322 75.5276 37.7379 75.2838 37.8517C72.903 39.0251 70.7544 40.7248 68.8158 42.579C70.2361 41.8669 71.7078 41.2622 73.2185 40.7698L73.2101 40.7653ZM78.966 38.028C79.4156 37.8684 79.876 37.7411 80.3438 37.6471C80.1313 37.6037 79.9188 37.5604 79.6908 37.5121C78.4053 37.3514 77.2917 37.2483 77.1533 37.249C77.0148 37.2497 76.9789 37.2555 76.8947 37.2568C76.8105 37.258 76.6586 37.3167 76.5446 37.3525C77.3705 37.5173 78.1828 37.7447 78.9744 38.0326L78.966 38.028ZM78.6974 37.0425C79.1158 37.0747 79.5382 37.1129 79.9558 37.1665C80.3734 37.2201 80.9065 37.2352 81.4704 37.267C81.2706 37.187 81.0694 37.1098 80.8663 37.0426C80.0614 36.9356 79.2474 36.9161 78.4384 36.9846C78.5244 37.0133 78.6165 37.031 78.7058 37.047L78.6974 37.0425ZM65.9611 44.0747C66.6332 43.7153 67.3109 43.359 67.997 43.0072C70.163 40.8232 72.7043 38.677 75.4819 37.4623C75.347 37.4432 75.209 37.4296 75.0755 37.4148C73.4623 37.666 71.8959 38.1574 70.4285 38.8727C66.8353 40.5899 63.5071 42.9929 60.3349 45.383C60.1883 45.4918 60.0443 45.2498 60.1866 45.1423C64.2117 42.0883 68.8206 38.4707 73.8616 37.3223C68.0673 37.1152 62.3961 39.877 57.6732 43.6104C57.5322 43.7223 57.3826 43.4772 57.5277 43.3711C62.6276 39.3533 68.7637 36.4786 74.9992 37.1153C75.537 37.0425 76.0782 36.9973 76.6207 36.98C69.3896 35.9377 61.6591 36.3224 56.4298 41.123C56.2969 41.2466 56.1026 41.057 56.227 40.9288C61.719 35.8866 69.8827 35.6332 77.4086 36.8146C78.0482 36.6886 78.6993 36.629 79.3513 36.6368C76.1193 35.9619 72.3299 36.1883 69.5847 35.9862C65.3936 35.6774 61.2483 35.2847 57.1757 36.5623C57.1757 36.5623 57.1562 36.5516 57.145 36.5455C56.9418 36.8576 56.763 37.185 56.6104 37.5247C56.0403 38.7561 55.9254 40.1499 56.2859 41.4584C56.6465 42.7669 57.4592 43.9054 58.5797 44.6718C61.1269 46.3746 63.5489 45.3654 65.9695 44.0793L65.9611 44.0747Z" fill="#C3937C"/>
<path d="M69.6737 25.9537C65.1306 21.9773 60.9802 17.4745 56.9079 13.0216C54.0355 9.88467 50.1443 3.44971 55.9284 0.840399C60.7114 -1.30589 65.1755 3.20114 66.0206 7.64268C66.9279 12.3361 65.7679 17.4226 67.0992 22.0315C67.1152 22.0931 67.1197 22.1571 67.1124 22.2203C68.1713 23.2487 71.7656 25.5958 72.8736 26.5675C73.3532 27 70.1538 26.372 69.6737 25.9537ZM60.8668 15.8256C61.931 16.9441 62.9948 18.0768 64.0722 19.1843C63.8237 18.69 63.66 18.1574 63.588 17.6089C63.4717 17.4692 63.3555 17.3295 63.2407 17.187C61.8826 15.9244 60.6404 14.5426 59.5292 13.0581C58.2606 11.9479 56.9238 10.9095 55.5827 9.87227C55.8306 10.2633 56.1026 10.6386 56.3971 10.9959C57.8055 12.6618 59.3687 14.2306 60.8668 15.8256ZM65.6349 19.4164L65.6118 19.1859C65.5258 19.1171 65.4355 19.0496 65.3579 18.9855C65.3377 18.9968 65.3147 19.0022 65.2915 19.0011C65.2683 19 65.2459 18.9925 65.2268 18.9793C65.2434 19.0014 65.2587 19.0244 65.2729 19.048C65.3902 19.1593 65.5156 19.2822 65.6395 19.408L65.6349 19.4164ZM64.8703 7.88632C63.9119 9.74178 62.7241 12.2637 63.2835 14.4067C63.3904 14.7967 63.5305 15.1769 63.7022 15.5431C63.9925 14.3163 64.5753 13.178 65.4008 12.2252C65.3341 10.7676 65.1567 9.31712 64.8703 7.88632ZM63.8381 16.4853C63.826 16.6699 63.8232 16.855 63.8296 17.0399C63.9606 17.2059 64.096 17.3706 64.2211 17.5406C64.4522 17.7829 64.6567 18.0071 64.8811 18.235C65.0045 18.335 65.132 18.4409 65.2442 18.5349C64.7675 17.9161 64.3266 17.2704 63.9238 16.6011C63.8898 16.5571 63.8626 16.5204 63.8325 16.4823L63.8381 16.4853ZM61.7672 15.1478C61.4726 14.8489 61.1721 14.5542 60.8673 14.2607C61.2759 14.75 61.7003 15.2238 62.1404 15.682C62.0084 15.5046 61.8947 15.3336 61.7616 15.1447L61.7672 15.1478ZM55.2164 9.22556C56.4512 10.1648 57.6771 11.1136 58.8614 12.1052C56.9843 9.36902 55.5574 6.35005 54.635 3.16303C53.5947 4.79584 54.1157 7.21562 55.2108 9.22252L55.2164 9.22556ZM54.8424 2.86955C55.8589 6.47443 57.5249 9.86379 59.7586 12.871C60.2193 13.2714 60.6725 13.6858 61.1139 14.1084C58.837 10.273 57.541 5.93574 57.3409 1.48074C56.3699 1.6362 55.484 2.12643 54.8368 2.86649L54.8424 2.86955ZM57.7002 1.40817L57.6182 1.42514C57.8065 5.70508 59.0163 9.8782 61.1466 13.596C60.8519 12.9833 60.6042 12.3491 60.4056 11.6989C59.4235 8.41364 59.558 4.74655 59.3991 1.34415C58.8305 1.29507 58.2581 1.31557 57.6946 1.40511L57.7002 1.40817ZM59.6907 1.36898C59.8313 4.48541 59.76 7.78392 60.4659 10.8167C60.9247 12.6855 61.7621 14.4404 62.9262 15.973C63.1389 16.2089 63.3485 16.4505 63.5599 16.6821C63.5659 16.4985 63.581 16.3152 63.6054 16.1331C62.633 14.7198 61.8439 13.1705 61.5745 11.5345C61.1235 8.79338 62.1071 5.60072 62.6766 2.93372C61.8951 2.07396 60.8318 1.52186 59.679 1.37714L59.6907 1.36898ZM62.8962 3.21699C62.3588 5.70541 61.5725 8.56998 61.8278 11.0771C61.9923 12.3777 62.4207 13.6311 63.0867 14.7605C62.9963 14.475 62.93 14.1825 62.8884 13.886C62.619 11.8105 63.7134 9.50634 64.6423 7.71828C64.6497 7.70184 64.6605 7.68719 64.674 7.67534C64.6876 7.66349 64.7036 7.65473 64.7209 7.64966C64.7381 7.64459 64.7563 7.64332 64.7741 7.64596C64.7919 7.64861 64.809 7.65508 64.824 7.66494C64.4518 5.99094 63.8546 4.38297 62.8906 3.21393L62.8962 3.21699ZM65.4214 12.6468C64.6456 13.604 64.1225 14.7407 63.9 15.9526C63.9883 16.117 64.0807 16.2873 64.1616 16.4585C64.6078 17.0653 65.0734 17.6499 65.5461 18.1949C65.4553 16.4312 65.4925 14.6394 65.4262 12.9508L65.4214 12.6468ZM65.7671 20.4255C65.5403 20.0112 65.3004 19.6054 65.0474 19.2082C64.6716 18.8251 64.3045 18.4395 63.9597 18.0261C64.211 19.0757 64.8134 20.008 65.667 20.6686C65.6901 20.6858 65.7057 20.7112 65.7105 20.7395C65.7154 20.7679 65.7091 20.797 65.6929 20.8208L65.8568 20.9865C65.8151 20.7967 65.7904 20.6089 65.7615 20.4224L65.7671 20.4255Z" fill="#C3937C"/>
<path d="M35.177 32.3971C36.2834 27.2959 42.443 25.0768 46.9442 24.6579C55.3028 23.868 57.0711 22.6652 60.55 22.9011C61.1805 22.9439 63.5119 24.6961 62.8628 24.654C60.8392 24.5468 58.8115 24.5428 56.7875 24.6422C56.7453 24.7239 56.6785 24.7903 56.5966 24.8321C50.6065 27.9318 48.8235 35.8232 42.5129 38.3521C38.2624 40.0554 34.1595 37.0893 35.177 32.3971ZM44.0864 32.4817C44.715 31.6233 45.4022 30.8093 46.1429 30.0455C46.7283 29.439 47.3348 28.8804 47.976 28.3116C47.2609 28.4369 46.5366 28.539 45.8066 28.6053L45.5783 28.6841C41.6589 30.067 37.176 31.7235 36.582 36.4253C36.7695 36.679 36.9931 36.9038 37.2458 37.0927C38.7207 34.604 41.4587 33.8544 43.9108 32.5638L44.0864 32.4817ZM53.1908 26.0197L53.0015 26.087C52.6933 26.403 52.3871 26.7043 52.0829 26.991C52.1379 26.9702 52.1954 26.958 52.2488 26.94C52.5527 26.6229 52.8648 26.3175 53.1908 26.0197ZM52.8256 24.9052C52.3451 25.253 51.863 25.6036 51.3851 25.96C52.3755 25.5965 53.3576 25.1884 54.3469 24.7806C53.8404 24.8164 53.3334 24.858 52.8256 24.9052ZM54.3401 25.0856C53.3909 25.4935 52.4355 25.9125 51.4466 26.2732L53.8296 25.4751C53.9971 25.3414 54.1686 25.2135 54.3401 25.0856ZM52.3757 26.3083L49.7066 27.2444C49.4951 27.4122 49.2851 27.5773 49.0693 27.7463C49.8733 27.5971 50.6692 27.4074 51.4541 27.1779C51.7709 26.897 52.0753 26.6056 52.3757 26.3083ZM48.9406 27.5163L47.5908 27.9923C47.9063 27.9467 48.2231 27.9054 48.539 27.8527L48.9406 27.5163ZM48.5142 28.2241C47.2634 29.2665 46.1117 30.4225 45.0741 31.6773C44.9591 31.8215 44.8496 31.9687 44.743 32.1175C46.9737 30.8523 49.0609 29.3496 50.9682 27.6354C50.1579 27.8685 49.3399 28.0647 48.5142 28.2241ZM36.3622 36.0692C36.9114 32.7738 39.483 30.8185 42.4728 29.5345C43.1495 29.2466 43.8371 28.9719 44.5288 28.7031C41.8622 28.8561 39.1087 28.9218 37.1256 30.7445C36.0928 32.4432 35.5479 34.5461 36.3622 36.0692ZM37.6698 29.9738C38.9423 29.1069 40.4644 28.7213 42.1027 28.5553C43.3901 28.4265 44.6437 28.3263 45.884 28.1972C47.1768 27.7191 48.4843 27.2672 49.7929 26.8267C49.1546 27.0145 48.5033 27.1554 47.8443 27.2483C45.1942 27.6173 42.5646 27.2168 39.9749 27.9675C39.7051 28.1289 39.4323 28.2959 39.1788 28.4807C38.6039 28.9001 38.0952 29.4034 37.6698 29.9738ZM40.944 27.4434C42.7643 27.097 44.6024 27.1708 46.4794 27.0733C47.8593 26.983 49.2209 26.709 50.5282 26.2585C51.1077 25.8159 51.6926 25.3834 52.2787 24.9553L51.6201 25.017C48.0801 25.3723 44.2044 25.8168 40.944 27.4434ZM49.3062 30.5267C48.2104 31.1548 47.1905 31.9067 46.2664 32.7675C45.119 33.8843 44.3551 35.2504 43.6662 36.672C44.7971 35.8671 45.8203 34.921 46.711 33.8564C47.6288 32.7741 48.4685 31.6419 49.3062 30.5267ZM43.2137 36.9552C44.7783 33.7165 46.7595 31.7911 49.7333 29.9573C50.4162 29.0591 51.1159 28.17 51.8586 27.3552C51.7777 27.3837 51.6955 27.4078 51.6133 27.4319C50.0338 28.9089 48.322 30.2379 46.4995 31.4022C45.8525 31.8018 45.1829 32.1639 44.4943 32.4865C43.3613 34.2358 42.5888 36.4361 41.1157 37.8435C41.8576 37.6601 42.5657 37.3603 43.2137 36.9552ZM38.7603 37.7924C39.3509 37.959 39.9693 38.0037 40.5777 37.9239C41.9872 36.7795 42.4949 34.9177 43.436 33.4268C43.5811 33.2009 43.733 32.9825 43.885 32.764C41.4393 33.9165 38.7855 35.0643 37.5015 37.2432C37.8885 37.4916 38.3101 37.6814 38.7526 37.8064L38.7603 37.7924Z" fill="#C3937C"/>
<path d="M19.0963 32.505C16.995 28.9937 20.7285 25.7152 23.4547 24.182C27.6822 21.8087 32.1903 21.0377 36.9457 20.4924C37.0267 20.4837 37.1086 20.497 37.1826 20.531C38.4628 19.73 39.8798 19.1308 41.3817 19.1481C42.0164 19.1568 43.9102 20.2597 43.2727 20.2494C40.4015 20.2182 35.9929 22.4708 34.0537 24.2593C31.6852 26.4417 29.9601 29.0226 27.8583 31.4087C25.8101 33.7297 21.2457 36.1079 19.0963 32.505ZM26.4882 31.4561L26.9476 30.9805C27.8489 29.4754 28.8285 28.0186 29.8825 26.6161C29.1177 27.1319 28.3529 27.6477 27.5899 28.1536L26.8893 28.5918C25.8334 30.0121 24.892 31.514 24.074 33.0833C24.0685 33.0937 24.061 33.103 24.0519 33.1105C24.0428 33.118 24.0323 33.1236 24.021 33.1271C24.9502 32.7484 25.789 32.1779 26.4826 31.453L26.4882 31.4561ZM34.1123 22.9076L34.0843 22.8923C33.687 23.0677 33.2882 23.2458 32.8884 23.4125C32.3346 24.0277 31.7959 24.6573 31.2724 25.3012C31.7654 24.9638 32.2515 24.6191 32.7358 24.2843C33.1653 23.8215 33.6197 23.3662 34.099 22.9185L34.1123 22.9076ZM33.5429 21.9141C33.5371 21.9348 33.5266 21.9539 33.5124 21.97C33.2309 22.1795 32.9634 22.3966 32.6812 22.6275C32.814 22.6238 32.9509 22.6259 33.0837 22.6221L33.3491 22.5019C33.5525 22.2825 33.76 22.0689 33.9689 21.8525L33.5429 21.9141ZM19.7414 31.4299C20.7987 29.5792 22.1216 27.8935 23.668 26.4265C21.9034 27.1301 20.4293 28.2065 19.6273 30.3944C19.6052 30.7463 19.6392 31.0995 19.7281 31.4408L19.7414 31.4299ZM19.8729 31.7813C20.1156 32.3171 20.545 32.7464 21.0809 32.9891C22.4549 29.5738 25.4271 26.9511 28.7577 24.9162C28.4015 25.0231 28.0477 25.1387 27.6846 25.2383C26.5259 25.5572 25.3833 25.8268 24.32 26.1905C22.5326 27.7977 21.0227 29.6888 19.8512 31.7877L19.8729 31.7813ZM30.5645 23.8761L31.078 23.6008C31.3287 23.3745 31.5631 23.1648 31.8118 22.9555C29.8264 23.0919 27.8999 23.5328 26.1769 24.7057C25.8229 24.9483 25.4694 25.2165 25.1182 25.5005C26.9167 24.928 28.7464 24.4379 30.5512 23.887L30.5645 23.8761ZM32.836 23.0425L32.3889 23.256L32.7767 23.1046L32.836 23.0425ZM32.0762 23.1034L32.4388 22.9383C32.3874 22.9392 32.3373 22.9446 32.2843 22.9484C32.2055 22.9997 32.1293 23.0526 32.0601 23.1129L32.0762 23.1034ZM34.4178 21.7889L34.0294 22.1942C34.431 22.0176 34.8267 21.845 35.2164 21.6837L34.4178 21.7889ZM33.7672 22.6212L34.0125 22.6244C34.1879 22.5494 34.3645 22.4788 34.5414 22.401C34.562 22.3913 34.5848 22.3868 34.6077 22.3879C34.6305 22.3889 34.6527 22.3956 34.6724 22.4072C34.8198 22.277 34.9712 22.1527 35.1227 22.0284C34.6666 22.2249 34.2095 22.4256 33.7512 22.6306L33.7672 22.6212ZM30.631 26.1168C29.69 27.3281 28.8003 28.5783 27.9718 29.8764C29.3177 28.356 30.542 26.7655 31.8737 25.2445C31.4434 25.5471 31.0318 25.8417 30.6149 26.1262L30.631 26.1168ZM30.4987 25.8267C31.076 25.0886 31.676 24.3667 32.2987 23.6608C31.7979 23.8594 31.2958 24.0538 30.7883 24.238C29.6004 25.342 28.4977 26.5343 27.4897 27.8047C28.479 27.1572 29.4842 26.5003 30.4827 25.8361L30.4987 25.8267ZM30.1554 24.459L29.9979 24.5146C26.2781 26.6167 22.8178 29.4015 21.3407 33.1056C21.419 33.1483 21.5241 33.1621 21.6188 33.1884C22.2418 31.5747 23.4151 30.4902 24.9164 29.4904C25.5186 29.0928 26.1263 28.6983 26.7341 28.3037C27.7661 26.9387 28.9042 25.6573 30.1378 24.4712L30.1554 24.459ZM25.8743 24.0357C23.9719 24.9183 21.7695 26.0111 20.5439 27.757C20.2125 28.2338 19.9613 28.7615 19.8 29.3193C20.5653 27.8066 21.8809 26.6445 23.4767 26.0716C23.7948 25.9547 24.1127 25.845 24.4306 25.7352C24.9442 25.2863 25.4804 24.8639 26.037 24.4696C27.8901 23.1715 30.0183 22.7536 32.1966 22.6499C32.4669 22.4343 32.74 22.2202 33.0187 22.0092C30.5499 22.3576 28.1407 23.0426 25.8582 24.0451L25.8743 24.0357ZM22.5178 33.3451C22.9992 33.369 23.4804 33.2972 23.9337 33.1339C23.9093 33.1355 23.885 33.1305 23.8631 33.1195C23.8413 33.1085 23.8228 33.0918 23.8096 33.0713C23.7963 33.0507 23.7889 33.027 23.7879 33.0025C23.7869 32.9781 23.7925 32.9539 23.804 32.9323C24.5295 31.5527 25.351 30.2258 26.2624 28.9614C24.4588 30.0758 22.7014 31.2518 21.9 33.2656C22.0988 33.3065 22.2997 33.3361 22.5018 33.3545L22.5178 33.3451Z" fill="#C3937C"/>
<path d="M43.5427 16.0679C41.2303 14.7002 38.4436 13.4294 36.5179 11.5066C34.773 9.75145 32.1968 5.00039 34.7056 2.84731C37.4578 0.507609 42.317 2.95334 43.708 5.70279C45.5558 9.35897 45.6344 13.7271 47.7721 17.3381C47.7721 17.3381 47.781 17.3684 47.7876 17.3829C49.1764 18.1665 50.5881 18.948 52.0112 19.6886C52.571 19.9942 50.96 20.8688 50.3972 20.5688C47.6936 19.1656 46.1778 17.6298 43.5427 16.0679ZM45.8473 15.906C45.5759 15.5158 45.2907 15.1264 44.9917 14.738C44.6054 14.5272 44.2192 14.3163 43.8329 14.1055C44.0445 14.499 44.2878 14.8747 44.5603 15.2288C44.9788 15.4694 45.4077 15.6951 45.8473 15.906ZM45.6164 15.1045L45.6031 15.0755L45.5863 15.0663C45.5863 15.0663 45.6082 15.0928 45.6164 15.1045ZM43.3313 14.4454C43.5359 14.5897 43.7466 14.7229 43.9573 14.8561C43.7462 14.5327 43.5562 14.196 43.3884 13.8483C43.0106 13.642 42.6327 13.4357 42.2826 13.2119C42.6014 13.6482 42.9519 14.0605 43.3313 14.4454ZM41.7042 12.8671C41.3719 12.6639 41.0384 12.4564 40.7135 12.2463C41.1983 12.736 41.71 13.1984 42.2462 13.6314C42.0535 13.381 41.8728 13.1262 41.7042 12.8671ZM43.19 13.4131C42.9656 12.8872 42.7748 12.3476 42.6188 11.7975C41.779 10.787 40.945 9.77249 40.1606 8.72694C40.5429 10.1184 41.1316 11.4448 41.9071 12.6619C42.3274 12.9168 42.7564 13.1692 43.19 13.4131ZM43.6043 13.6393C43.9233 13.8135 44.2424 13.9877 44.5615 14.1618C44.0845 13.5383 43.585 12.9424 43.0859 12.3394C43.2272 12.7894 43.3968 13.2301 43.5936 13.6588L43.6043 13.6393ZM35.8401 9.00122C37.1129 11.1487 39.2344 12.3069 41.3026 13.563C41.9323 13.9468 42.5651 14.3249 43.1979 14.703C43.1833 14.6966 43.1693 14.6889 43.1559 14.6801C41.8618 13.7856 40.6879 12.7285 39.6631 11.535C37.738 10.1499 36.0405 8.50777 34.8444 6.33315C35.0031 7.27908 35.34 8.18635 35.8371 9.00682L35.8401 9.00122ZM34.8005 5.76807C34.8219 5.76648 34.8433 5.77112 34.8622 5.78142C34.881 5.79172 34.8966 5.80724 34.9068 5.82613C35.8924 7.69208 37.2704 9.32268 38.9459 10.6059C37.3724 8.5204 36.2551 6.12752 35.6665 3.58259C35.3613 3.85511 35.1238 4.19499 34.973 4.57533C34.8221 4.95567 34.762 5.36599 34.7974 5.77367L34.8005 5.76807ZM36.4244 3.13928C36.2444 3.21354 36.0724 3.30574 35.9109 3.41451C36.568 6.33669 37.9314 9.05361 39.8817 11.3275C40.3644 11.6745 40.8634 12.005 41.3712 12.3258C40.6207 11.0078 40.0629 9.58912 39.7146 8.11308C38.5671 6.56537 37.6385 4.86696 36.955 3.06579C36.946 3.03811 36.9481 3.00795 36.9609 2.9818C36.7762 3.01848 36.5955 3.07307 36.4214 3.14484L36.4244 3.13928ZM37.1877 2.9458C37.2044 2.95497 37.2185 2.9626 37.2261 2.98856C37.8099 4.55021 38.5874 6.03249 39.5405 7.40061C39.2539 5.98926 39.0782 4.55769 39.015 3.11901C38.4243 2.93054 37.7996 2.87334 37.1846 2.95141L37.1877 2.9458ZM39.3122 3.22677C39.3858 4.83606 39.6074 6.43523 39.974 8.00406C40.7499 9.08497 41.5915 10.1255 42.443 11.1677C41.9248 9.06904 41.7288 6.8194 41.4072 4.84623C41.4031 4.82115 41.4053 4.79546 41.4137 4.77146C41.422 4.74745 41.4361 4.72587 41.4549 4.70871C41.4736 4.69155 41.4963 4.67934 41.521 4.67316C41.5456 4.66698 41.5714 4.66704 41.5961 4.67332C40.9328 4.05133 40.1565 3.56219 39.3091 3.23237L39.3122 3.22677ZM43.9355 9.85804C43.6141 8.7565 43.4005 7.51051 42.9503 6.45852C42.6425 5.80309 42.2077 5.21519 41.6711 4.72884L41.6907 4.73953C42.0405 6.88063 42.2286 9.39106 42.8781 11.6486C43.662 12.5886 44.4443 13.5313 45.1872 14.4998L45.4671 14.6526C44.8581 13.0927 44.3933 11.4552 43.9386 9.85243L43.9355 9.85804ZM46.1717 16.37C45.8811 16.2368 45.5936 16.098 45.3106 15.9508C45.6157 16.1173 45.9129 16.305 46.2134 16.4799L46.1717 16.37Z" fill="#C3937C"/>
<path d="M31.3181 17.1515C27.3759 16.5864 23.5226 14.6208 20.3324 12.3055C18.3356 10.8522 14.9618 8.16788 15.1516 5.30452C15.4137 1.42378 20.3035 1.98327 22.429 3.74647C24.4505 5.42745 25.6308 8.00376 26.9832 10.1983C27.9205 11.7902 29.0071 13.2893 30.2284 14.6755C30.3292 14.7305 30.4407 14.7659 30.5463 14.8054C30.6519 14.8449 30.6305 14.9639 30.5569 15.0255C31.5904 16.0872 34.8129 16.9458 36.2088 17.6497C36.7793 17.9357 34.2545 18.8671 33.6868 18.5826C32.8888 18.1796 32.1331 17.6977 31.4311 17.1442C31.3939 17.151 31.356 17.1535 31.3181 17.1515ZM16.79 4.49936C19.7651 8.35649 23.5787 11.4866 27.9422 13.6525C26.0934 11.923 24.4783 9.95964 23.1378 7.81218C21.3789 6.28948 19.4732 4.945 17.4487 3.79856C17.1923 3.98245 16.9757 4.21624 16.8119 4.48591L16.79 4.49936ZM28.6742 14.408L28.5538 14.2625C28.3803 14.1677 28.1961 14.0926 28.0223 14.005C28.2543 14.1389 28.4721 14.2723 28.6899 14.4057L28.6742 14.408ZM16.6462 4.7695C16.4926 5.12578 16.4152 5.51023 16.4188 5.89823C17.8309 6.99839 19.2608 8.06829 20.7084 9.10792C19.2325 7.7849 17.8782 6.33217 16.662 4.76722L16.6462 4.7695ZM27.4733 12.801C27.1804 12.3748 26.8921 11.9402 26.6084 11.4972C26.526 11.3686 26.4494 11.2361 26.3657 11.1032C25.7347 10.3956 25.1101 9.66968 24.4249 9.00148C24.2733 8.85333 24.1186 8.71076 23.9682 8.56694C25.0043 10.0865 26.1833 11.5035 27.4891 12.7987L27.4733 12.801ZM29.8587 15.752C29.8403 15.7644 29.8187 15.7714 29.7965 15.7721C29.7742 15.7728 29.7522 15.7672 29.733 15.756C25.6436 13.371 21.5546 10.985 17.4662 8.59813C18.4007 9.83458 19.8329 10.9179 21.2007 11.8063C23.827 12.9169 26.3877 14.1766 28.8704 15.5792C29.2416 15.6911 29.6119 15.7915 29.9867 15.8836C29.9725 15.8431 29.9297 15.8016 29.8857 15.7558L29.8587 15.752ZM27.337 15.0472C25.8979 14.2761 24.4347 13.5511 22.9475 12.8724C23.1155 12.9641 23.275 13.0512 23.4289 13.1352C24.695 13.8726 26.0141 14.515 27.3752 15.0571L27.337 15.0472ZM17.0737 8.04612L29.3308 15.1951L29.2224 15.0741C24.7859 12.3869 20.5084 9.44544 16.4113 6.26459C16.439 6.50853 16.4901 6.74924 16.5639 6.9834C16.7025 7.36176 16.8865 7.72194 17.1118 8.05606L17.0737 8.04612ZM19.7617 3.40159C19.0676 3.20854 18.3264 3.28355 17.6852 3.61169C19.4285 4.60657 21.0849 5.74649 22.6369 7.01939C22.0721 6.05739 21.5394 5.03665 21.0342 3.96554C20.654 3.71792 20.2376 3.53104 19.7999 3.41156L19.7617 3.40159ZM23.5126 6.51332C22.954 5.67585 22.2763 4.9242 21.5009 4.28204C22.046 5.42174 22.6535 6.53055 23.3208 7.6034C23.4951 7.75665 23.6693 7.9099 23.8421 8.06595C24.4609 8.63617 25.0384 9.24196 25.5984 9.85998C24.9724 8.73742 24.3099 7.595 23.5508 6.52325L23.5126 6.51332Z" fill="#C3937C"/>
<path d="M13.1992 17.9516C9.73153 18.0414 -3.25801 15.0358 1.33377 9.07364C3.10304 6.77108 5.8862 8.26139 7.50563 9.85361C10.3959 12.6916 12.6412 17.8758 17.1868 18.4071C17.8191 18.4799 17.5863 19.4387 16.9609 19.3733C15.6791 19.1906 14.4654 18.683 13.4351 17.8988C13.3621 17.9357 13.281 17.9538 13.1992 17.9516ZM2.50717 13.1533C5.05139 14.5422 7.62668 15.821 10.4721 16.3721C10.1768 16.1046 9.89592 15.8215 9.63072 15.5241C9.14804 15.2171 8.65925 14.9212 8.17351 14.6197C8.17351 14.6197 8.14043 14.627 8.12084 14.6163C6.28744 13.5676 4.26159 12.8989 2.16424 12.6502C2.27211 12.8252 2.38734 12.9935 2.50717 13.1533ZM10.7907 16.2809C10.8683 16.345 10.9474 16.4064 11.0266 16.4677L11.0988 16.4818L10.7907 16.2809ZM11.8169 16.95C11.6909 16.8812 11.5785 16.7944 11.4586 16.7145C11.4513 16.7346 11.441 16.7535 11.4281 16.7705C11.5176 16.8194 11.5937 16.8863 11.6942 16.9484L11.8169 16.95ZM11.1166 16.9018C11.0354 16.8575 10.9723 16.7867 10.9016 16.73C8.06428 16.2705 5.52436 15.0801 3.00685 13.742C3.13841 13.879 3.27762 14.0083 3.42384 14.1295C5.54177 15.8268 8.37517 16.6727 11.1194 16.9033L11.1166 16.9018ZM1.97826 12.3452C3.34782 12.4898 4.69306 12.8105 5.98069 13.2992C4.50517 12.4283 3.01718 11.5869 1.50525 10.776C1.5386 11.3313 1.70361 11.8708 1.98667 12.3498L1.97826 12.3452ZM1.5277 10.4687C3.9989 11.7851 6.41407 13.1907 8.78956 14.6691C8.73078 14.637 8.68702 14.5841 8.63588 14.538C6.65717 12.7787 5.2959 10.5139 3.05426 9.04323C2.92559 9.06414 2.79922 9.09729 2.67686 9.14224C2.38398 9.24004 2.12319 9.41553 1.92228 9.64994C1.72137 9.88436 1.5879 10.1689 1.5361 10.4733L1.5277 10.4687ZM3.49528 9.00071C5.06619 10.1161 6.18484 11.5875 7.48978 12.9972C7.78643 13.3189 8.09532 13.6183 8.41285 13.9151C7.57484 12.655 6.86791 11.2813 6.14366 9.99255C5.4035 9.46501 4.41725 8.9956 3.50369 9.0053L3.49528 9.00071ZM8.64105 12.8049C8.08315 12.0132 7.46971 11.2621 6.80541 10.5572L6.74741 10.5037C7.5018 11.9844 8.37219 13.4031 9.35041 14.7465C10.1479 15.3974 10.9834 16.0003 11.8526 16.5519C10.6916 15.3873 9.62085 14.1362 8.64945 12.8095L8.64105 12.8049Z" fill="#C3937C"/>
<path d="M7.97361 33.8595C6.36742 32.2164 6.84073 29.446 7.88516 27.6592C10.0428 23.9599 14.6706 22.7966 18.2851 21.0801C19.0164 20.2793 19.8068 19.5345 20.6496 18.852C21.1375 18.4574 21.8519 19.1452 21.364 19.5398C20.526 20.2171 19.7414 20.958 19.0171 21.7558C18.9972 21.7808 18.9748 21.8039 18.9505 21.8247C17.7037 23.2184 16.6286 24.7566 15.7481 26.4063C14.6484 28.4207 13.9044 30.7019 12.4961 32.5297C11.3667 34.0195 9.62941 35.5514 7.97361 33.8595ZM11.1438 32.8773C12.0512 30.4165 13.6572 28.3263 14.8285 25.9878C14.8377 25.971 14.8422 25.9626 14.8499 25.9487L14.8575 25.9347C14.9598 25.7472 15.0607 25.5626 15.163 25.3751C13.111 27.8029 11.2536 30.3334 10.2889 33.3984C10.6022 33.2761 10.8916 33.0997 11.1438 32.8773ZM16.0649 23.9427C16.3184 23.5582 16.5828 23.1869 16.8572 22.8173C16.7521 22.9234 16.6513 23.0281 16.5449 23.1298C16.5434 23.1507 16.5374 23.1709 16.5274 23.1893C16.5174 23.2076 16.5036 23.2236 16.4869 23.2362L16.2497 23.4044C15.0158 24.5466 13.6674 25.5392 12.4969 26.745C10.7055 28.5951 9.55959 30.9742 9.22974 33.5283C9.47819 33.5854 9.73665 33.582 9.98348 33.5185C11.1107 29.7833 13.5285 26.8252 16.0725 23.9287L16.0649 23.9427ZM14.4724 23.8251C12.1287 26.268 9.44323 27.9796 7.9535 31.0013C7.96402 31.2608 7.9929 31.5193 8.03989 31.7748C9.65469 28.0515 12.7954 25.5461 16.0635 23.1866L16.1978 23.0602C15.6212 23.3046 15.0473 23.5506 14.48 23.8111L14.4724 23.8251ZM8.14312 32.2379C8.2556 32.7174 8.54675 33.1361 8.95722 33.4086C9.23517 31.3027 10.0552 29.3053 11.3371 27.6117C11.6892 27.1679 12.0693 26.7471 12.4753 26.3519C10.6568 27.9993 9.09655 29.8458 8.15075 32.2239L8.14312 32.2379ZM8.02318 29.9354L8.00257 30.073C9.47359 27.7311 11.7079 26.1472 13.7323 24.1692C12.7849 24.6224 11.8818 25.1628 11.0346 25.7833C9.64245 26.8028 8.38639 28.1653 8.03083 29.9214L8.02318 29.9354ZM13.7534 28.4696C12.9546 29.7165 12.2442 31.0179 11.6273 32.3641C12.496 31.3385 13.1793 29.834 13.7611 28.4556L13.7534 28.4696Z" fill="#C3937C"/>
</svg>
